<?xml version="1.0" encoding="utf-8"?>
<!-- Generator: Adobe Illustrator 24.3.0, SVG Export Plug-In . SVG Version: 6.00 Build 0)  -->
<svg version="1.1" id="Layer_1" xmlns="http://www.w3.org/2000/svg" xmlns:xlink="http://www.w3.org/1999/xlink" x="0px" y="0px"
	 viewBox="0 0 1000 225.42" style="enable-background:new 0 0 1000 225.42;" xml:space="preserve">
<g>
	<g>
		<path style="fill:#BF9950;" d="M225.42,42.15v123.32h-44.26v-24.44h19.83V24.43H84.38v45.92H59.95V0h123.32
			C206.55,0,225.42,18.87,225.42,42.15z"/>
		<polygon style="fill:#BF9950;" points="155.06,141.03 155.06,165.47 59.95,165.47 59.95,100.08 84.38,100.08 84.38,141.03 		"/>
		<path style="fill:#BF9950;" d="M148.92,93.76l-7.88,7.88v39.38h24.42v-63.8L148.92,93.76z M0,59.95v123.32
			c0,23.28,18.87,42.15,42.15,42.15h123.31V59.95H0z M141.04,200.98H24.43V84.38h116.61V200.98z"/>
		<polygon style="fill:#BF9950;" points="218.88,23.81 190.11,23.81 190.11,18.02 134.02,74.11 148.92,74.11 148.92,93.76 		"/>
		<polygon style="fill:#BF9950;" points="18.58,211.28 31.4,211.28 101.66,141.03 84.38,141.03 84.38,123.76 7.03,201.11 
			18.58,201.11 		"/>
	</g>
	<g>
		<g>
			<path style="fill:#FFFFFF;" d="M292.96,120.57c-6.46-3.83-11.52-9.15-15.18-15.95c-3.66-6.8-5.49-14.42-5.49-22.86
				c0-8.44,1.83-16.06,5.49-22.86c3.66-6.8,8.72-12.14,15.18-16.02s13.69-5.81,21.7-5.81c8.01,0,15.24,1.94,21.7,5.81
				s11.52,9.21,15.18,16.02c3.66,6.8,5.49,14.42,5.49,22.86c0,8.44-1.83,16.06-5.49,22.86c-3.66,6.8-8.72,12.12-15.18,15.95
				c-6.46,3.83-13.69,5.75-21.7,5.75C306.65,126.32,299.42,124.4,292.96,120.57z M292.7,96.22c2.15,4.31,5.14,7.69,8.98,10.14
				c3.83,2.45,8.16,3.68,12.98,3.68c4.82,0,9.17-1.23,13.05-3.68c3.87-2.45,6.91-5.83,9.11-10.14c2.2-4.31,3.29-9.13,3.29-14.47
				c0-5.42-1.1-10.29-3.29-14.6c-2.2-4.31-5.23-7.69-9.11-10.14s-8.22-3.68-13.05-3.68c-4.82,0-9.15,1.23-12.98,3.68
				c-3.83,2.45-6.83,5.83-8.98,10.14c-2.15,4.31-3.23,9.17-3.23,14.6C289.47,87.09,290.55,91.92,292.7,96.22z"/>
			<path style="fill:#FFFFFF;" d="M453.51,45.91c4.48,4.69,6.72,10.91,6.72,18.66c0,7.41-2.24,13.39-6.72,17.95
				c-4.48,4.57-10.38,6.85-17.7,6.85h-42.37v35.26h-16.4V38.87h58.77C443.13,38.87,449.03,41.22,453.51,45.91z M435.81,74
				c2.41,0,4.35-0.79,5.81-2.39c1.46-1.59,2.2-3.68,2.2-6.26V62.9c0-2.58-0.73-4.67-2.2-6.26c-1.47-1.59-3.4-2.39-5.81-2.39h-42.37
				V74H435.81z"/>
			<path style="fill:#FFFFFF;" d="M496.65,74h47.27v15.37h-47.27v19.76h63.42v15.5h-79.82V38.87h79.82v15.37h-63.42V74z"/>
			<path style="fill:#FFFFFF;" d="M598.04,65.35v59.29h-16.4V38.87h14.6l50.63,59.16V38.87h16.4v85.77h-14.85L598.04,65.35z"/>
			<path style="fill:#FFFFFF;" d="M760.53,90.28L744.38,66.9v57.74h-16.4V38.87h14.6l26.35,36.04l25.83-36.04h14.85v85.77h-16.4
				V66.9l-16.28,23.38H760.53z"/>
			<path style="fill:#FFFFFF;" d="M900.03,124.64l-8.4-21.96h-39.78l-8.27,21.96h-17.31l33.45-85.77h24.41l33.45,85.77H900.03z
				 M886.08,87.31l-14.6-35.65L857.4,87.31H886.08z"/>
			<path style="fill:#FFFFFF;" d="M1000,38.87v15.37h-32.68v70.39h-16.28V54.24h-32.68V38.87H1000z"/>
		</g>
		<g>
			<path style="fill:#FFFFFF;" d="M511.69,146.83v4.94h-13v28.52h-5.39v-28.52h-13.05v-4.94H511.69z"/>
			<path style="fill:#FFFFFF;" d="M546.16,180.29l-3.83-8.67h-15.82l-3.73,8.67h-5.75l14.56-33.71h5.29l15.12,33.71H546.16z
				 M540.57,166.73l-6.25-13.96l-5.95,13.96H540.57z"/>
			<path style="fill:#FFFFFF;" d="M563.6,146.83h5.39v28.52h19.55v4.94H563.6V146.83z"/>
			<path style="fill:#FFFFFF;" d="M625.08,161.04v4.99h-18.9v9.32h25.4v4.94h-30.79v-33.46h30.79v4.94h-25.4v9.27H625.08z"/>
			<path style="fill:#FFFFFF;" d="M650.42,155.4v24.89h-5.39v-33.46h5.09l20.96,24.89v-24.89h5.39v33.46h-5.09L650.42,155.4z"/>
			<path style="fill:#FFFFFF;" d="M720.07,146.83v4.94h-13v28.52h-5.39v-28.52h-13.05v-4.94H720.07z"/>
			<path style="fill:#FFFFFF;" d="M753.88,165.4c1.38-1.56,3.31-3.03,5.79-4.41c-1.14-1.44-2.05-2.82-2.72-4.13
				c-0.67-1.31-1.01-2.67-1.01-4.08c0-2.15,0.84-3.79,2.52-4.91c1.68-1.12,3.66-1.69,5.95-1.69c1.51,0,2.92,0.27,4.23,0.81
				c1.31,0.54,2.37,1.34,3.18,2.42c0.81,1.08,1.21,2.35,1.21,3.83c0,1.85-0.54,3.38-1.61,4.59c-1.08,1.21-2.62,2.49-4.64,3.83
				l5.44,7.66c0.71-1.38,1.26-2.65,1.66-3.83l0.1-0.45l4.54,1.11l-0.15,0.5c-0.34,1.28-0.71,2.39-1.11,3.35
				c-0.4,0.96-0.92,1.91-1.56,2.85c0.74,0.74,1.49,1.46,2.27,2.17c0.77,0.71,1.53,1.31,2.27,1.81l0.45,0.25l-3.07,4.13l-0.4-0.3
				c-1.44-0.77-3.02-2.05-4.74-3.83c-1.44,1.38-2.85,2.38-4.21,3c-1.36,0.62-3.02,0.93-4.96,0.93c-3.33,0-6.07-0.83-8.24-2.49
				c-2.17-1.66-3.25-4.06-3.25-7.18C751.81,168.94,752.5,166.96,753.88,165.4z M758.64,175.2c1.02,1.04,2.39,1.56,4.11,1.56
				c1.14,0,2.2-0.27,3.17-0.81c0.97-0.54,2.08-1.31,3.33-2.32l-7.11-9.37c-1.58,0.91-2.81,1.92-3.7,3.02
				c-0.89,1.11-1.34,2.4-1.34,3.88C757.11,172.82,757.62,174.16,758.64,175.2z M763.2,157.26c0.03,0.03,0.32,0.37,0.86,1.01
				l1.21-0.81c0.64-0.4,1.14-0.79,1.51-1.16c1.01-0.81,1.51-1.76,1.51-2.87c0-0.97-0.32-1.72-0.96-2.24
				c-0.64-0.52-1.51-0.78-2.62-0.78c-1.08,0-1.97,0.17-2.67,0.5c-0.71,0.34-1.06,0.89-1.06,1.66
				C760.99,154.02,761.72,155.58,763.2,157.26z"/>
			<path style="fill:#FFFFFF;" d="M826.9,166.89l-8.42-11.34v24.74h-5.39v-33.46h4.99l10.83,14.26l10.58-14.26h5.04v33.46h-5.39
				V155.5l-8.52,11.39H826.9z"/>
			<path style="fill:#FFFFFF;" d="M883.19,161.04v4.99h-18.9v9.32h25.4v4.94H858.9v-33.46h30.79v4.94h-25.4v9.27H883.19z"/>
			<path style="fill:#FFFFFF;" d="M927.51,149.1c2.47,1.51,4.38,3.55,5.72,6.1c1.34,2.55,2.02,5.34,2.02,8.36
				c0,2.99-0.67,5.76-2.02,8.32c-1.34,2.55-3.25,4.59-5.72,6.12c-2.47,1.53-5.33,2.29-8.59,2.29h-15.77v-33.46h15.77
				C922.18,146.83,925.04,147.58,927.51,149.1z M918.92,175.35c2.15,0,4.03-0.55,5.64-1.64c1.61-1.09,2.84-2.54,3.68-4.33
				c0.84-1.8,1.26-3.72,1.26-5.77c0-2.08-0.42-4.03-1.26-5.85c-0.84-1.81-2.07-3.27-3.68-4.36c-1.61-1.09-3.49-1.64-5.64-1.64
				h-10.38v23.58H918.92z"/>
			<path style="fill:#FFFFFF;" d="M953.49,146.83v33.46h-5.39v-33.46H953.49z"/>
			<path style="fill:#FFFFFF;" d="M994.15,180.29l-3.83-8.67H974.5l-3.73,8.67h-5.75l14.56-33.71h5.29l15.12,33.71H994.15z
				 M988.56,166.73l-6.25-13.96l-5.95,13.96H988.56z"/>
		</g>
		<rect x="272.29" y="162.77" style="fill:#FFFFFF;" width="166.57" height="1.82"/>
	</g>
</g>
<g>
</g>
<g>
</g>
<g>
</g>
<g>
</g>
<g>
</g>
<g>
</g>
<g>
</g>
<g>
</g>
<g>
</g>
<g>
</g>
<g>
</g>
<g>
</g>
<g>
</g>
<g>
</g>
<g>
</g>
</svg>
